 http://www.shotpix.com/images/58491497111556834784.jpg

General
Complete name                            : 2Pac Ft. Outlawz - Made Niggaz (Explicit).MP4
Format                                   : MPEG-4
Format profile                           : Base Media / Version 2
Codec ID                                 : mp42
File size                                : 77.4 MiB
Duration                                 : 5mn 5s
Overall bit rate mode                    : Variable
Overall bit rate                         : 2 128 Kbps
Encoded date                             : UTC 2009-08-19 23:27:53
Tagged date                              : UTC 2009-08-19 23:27:53

Video
ID                                       : 2
Format                                   : AVC
Format/Info                              : Advanced Video Codec
Format profile                           : High@L3.1
Format settings, CABAC                   : Yes
Format settings, ReFrames                : 3 frames
Codec ID                                 : avc1
Codec ID/Info                            : Advanced Video Coding
Duration                                 : 5mn 5s
Bit rate                                 : 2 000 Kbps
Maximum bit rate                         : 2 408 Kbps
Width                                    : 1 280 pixels
Height                                   : 720 pixels
Display aspect ratio                     : 16:9
Frame rate mode                          : Constant
Frame rate                               : 30.000 fps
Color space                              : YUV
Chroma subsampling                       : 4:2:0
Bit depth                                : 8 bits
Scan type                                : Progressive
Bits/(Pixel*Frame)                       : 0.072
Stream size                              : 72.7 MiB (94%)
Title                                    : (C) 2007 Google Inc. v08.13.2007.
Encoded date                             : UTC 2009-08-19 23:27:53
Tagged date                              : UTC 2009-08-19 23:27:55

Audio
ID                                       : 1
Format                                   : AAC
Format/Info                              : Advanced Audio Codec
Format profile                           : LC
Codec ID                                 : 40
Duration                                 : 5mn 5s
Bit rate mode                            : Variable
Bit rate                                 : 126 Kbps
Maximum bit rate                         : 163 Kbps
Channel(s)                               : 2 channels
Channel positions                        : Front: L R
Sampling rate                            : 44.1 KHz
Compression mode                         : Lossy
Stream size                              : 4.58 MiB (6%)
Title                                    : (C) 2007 Google Inc. v08.13.2007.
Encoded date                             : UTC 2009-08-19 23:27:53
Tagged date                              : UTC 2009-08-19 23:27:55
 
http://www.shotpix.com/images/21412765944305714568.gif
